<svg xmlns="http://www.w3.org/2000/svg" viewBox="0 0 120 120">
  <defs>
    <linearGradient id="bg-j" x1="0" y1="0" x2="1" y2="1">
      <stop offset="0%" stop-color="#e0e7ff"/>
      <stop offset="100%" stop-color="#a5b4fc"/>
    </linearGradient>
    <linearGradient id="skin-j" x1="0" y1="0" x2="0" y2="1">
      <stop offset="0%" stop-color="#fde8d0"/>
      <stop offset="100%" stop-color="#eec89c"/>
    </linearGradient>
  </defs>
  <circle cx="60" cy="60" r="60" fill="url(#bg-j)"/>
  <!-- Body -->
  <ellipse cx="60" cy="115" rx="40" ry="30" fill="#4f46e5"/>
  <ellipse cx="60" cy="113" rx="34" ry="26" fill="#4338ca"/>
  <!-- Neck -->
  <rect x="51" y="80" width="18" height="14" rx="6" fill="url(#skin-j)"/>
  <!-- Head -->
  <ellipse cx="60" cy="55" rx="29" ry="31" fill="url(#skin-j)"/>
  <!-- Hair -->
  <ellipse cx="60" cy="36" rx="31" ry="20" fill="#1c1917"/>
  <path d="M29 48 Q32 26 60 22 Q88 26 91 48 Q88 34 60 30 Q32 34 29 48Z" fill="#292524"/>
  <!-- Styled fringe -->
  <path d="M38 44 Q48 34 62 36 Q70 37 78 42" stroke="#1c1917" stroke-width="6" fill="none" stroke-linecap="round"/>
  <!-- Eyes -->
  <ellipse cx="47" cy="55" rx="3.5" ry="3.5" fill="#1c1917"/>
  <ellipse cx="73" cy="55" rx="3.5" ry="3.5" fill="#1c1917"/>
  <circle cx="48.5" cy="54" r="1.2" fill="white" opacity="0.8"/>
  <circle cx="74.5" cy="54" r="1.2" fill="white" opacity="0.8"/>
  <!-- Eyebrows -->
  <path d="M40 48 Q47 44 54 47" stroke="#1c1917" stroke-width="2" fill="none" stroke-linecap="round"/>
  <path d="M66 47 Q73 44 80 48" stroke="#1c1917" stroke-width="2" fill="none" stroke-linecap="round"/>
  <!-- Nose -->
  <path d="M58 60 Q60 65 62 60" stroke="#d4a574" stroke-width="1.2" fill="none" stroke-linecap="round"/>
  <!-- Mouth - slight smile -->
  <path d="M52 70 Q60 75 68 70" stroke="#d4764e" stroke-width="2" fill="none" stroke-linecap="round"/>
  <!-- Ears -->
  <ellipse cx="31" cy="58" rx="4" ry="6" fill="url(#skin-j)"/>
  <ellipse cx="89" cy="58" rx="4" ry="6" fill="url(#skin-j)"/>
</svg>
