<?xml version="1.0" standalone="no"?>
<!DOCTYPE svg PUBLIC "-//W3C//DTD SVG 20010904//EN"
 "http://www.w3.org/TR/2001/REC-SVG-20010904/DTD/svg10.dtd">
<svg version="1.0" xmlns="http://www.w3.org/2000/svg"
 width="282.000000pt" height="273.000000pt" viewBox="0 0 282.000000 273.000000"
 preserveAspectRatio="xMidYMid meet">

<g transform="translate(0.000000,273.000000) scale(0.100000,-0.100000)"
fill="#530666" stroke="none">
<path d="M535 2672 c-218 -18 -405 -74 -425 -127 -6 -17 -10 -393 -10 -1046 0
-1110 -2 -1071 55 -1085 13 -3 81 0 151 6 73 8 170 10 229 7 104 -7 257 -31
285 -46 9 -5 31 -12 50 -16 86 -18 286 -127 381 -206 26 -22 50 -39 53 -39 3
0 6 515 6 1144 l0 1144 -38 34 c-119 108 -314 194 -492 218 -88 11 -193 17
-245 12z"/>
<path d="M2150 2674 c-111 -11 -227 -35 -305 -63 -65 -23 -219 -109 -272 -152
l-63 -49 0 -1145 c0 -630 2 -1145 4 -1145 3 0 42 28 88 63 46 34 124 82 173
106 50 23 98 47 109 53 30 16 104 38 201 59 126 28 291 35 445 19 150 -15 171
-9 190 59 7 27 10 362 8 1049 -3 994 -3 1010 -23 1032 -23 26 -41 33 -153 66
-110 33 -311 56 -402 48z"/>
</g>
</svg>
